<?xml version="1.0" encoding="UTF-8"?>
<!-- Do not edit this file with editors other than draw.io -->
<!DOCTYPE svg PUBLIC "-//W3C//DTD SVG 1.1//EN" "http://www.w3.org/Graphics/SVG/1.1/DTD/svg11.dtd">
<svg xmlns="http://www.w3.org/2000/svg" style="background: #ffffff; background-color: light-dark(#ffffff, var(--ge-dark-color, #121212)); color-scheme: light dark;" xmlns:xlink="http://www.w3.org/1999/xlink" version="1.1" width="201px" height="311px" viewBox="-0.5 -0.5 201 311" content="&lt;mxfile host=&quot;Electron&quot; agent=&quot;Mozilla/5.0 (Macintosh; Intel Mac OS X 10_15_7) AppleWebKit/537.36 (KHTML, like Gecko) draw.io/26.1.1 Chrome/132.0.6834.210 Electron/34.3.3 Safari/537.36&quot; version=&quot;26.1.1&quot; scale=&quot;1&quot; border=&quot;0&quot;&gt;&#10;  &lt;diagram name=&quot;Página-1&quot; id=&quot;cF36ulMosuSE2jmrkVhX&quot;&gt;&#10;    &lt;mxGraphModel dx=&quot;1242&quot; dy=&quot;793&quot; grid=&quot;1&quot; gridSize=&quot;10&quot; guides=&quot;1&quot; tooltips=&quot;1&quot; connect=&quot;1&quot; arrows=&quot;1&quot; fold=&quot;1&quot; page=&quot;1&quot; pageScale=&quot;1&quot; pageWidth=&quot;827&quot; pageHeight=&quot;1169&quot; math=&quot;0&quot; shadow=&quot;0&quot;&gt;&#10;      &lt;root&gt;&#10;        &lt;mxCell id=&quot;0&quot; /&gt;&#10;        &lt;mxCell id=&quot;1&quot; parent=&quot;0&quot; /&gt;&#10;        &lt;mxCell id=&quot;6LdEgEPXFQvdNdE8efgR-1&quot; value=&quot;&quot; style=&quot;container=1;collapsible=0;expand=0;recursiveResize=0;html=1;whiteSpace=wrap;strokeColor=#1192E8;fillColor=none;strokeWidth=1&quot; vertex=&quot;1&quot; parent=&quot;1&quot;&gt;&#10;          &lt;mxGeometry x=&quot;300&quot; y=&quot;180&quot; width=&quot;200&quot; height=&quot;310&quot; as=&quot;geometry&quot; /&gt;&#10;        &lt;/mxCell&gt;&#10;        &lt;mxCell id=&quot;6LdEgEPXFQvdNdE8efgR-2&quot; value=&quot;IBM Cloud&quot; style=&quot;shape=rect;fillColor=none;aspect=fixed;resizable=0;labelPosition=right;verticalLabelPosition=middle;align=left;verticalAlign=middle;strokeColor=none;part=1;spacingLeft=5;fontSize=14;&quot; vertex=&quot;1&quot; parent=&quot;6LdEgEPXFQvdNdE8efgR-1&quot;&gt;&#10;          &lt;mxGeometry width=&quot;48&quot; height=&quot;48&quot; relative=&quot;1&quot; as=&quot;geometry&quot; /&gt;&#10;        &lt;/mxCell&gt;&#10;        &lt;mxCell id=&quot;6LdEgEPXFQvdNdE8efgR-3&quot; value=&quot;&quot; style=&quot;fillColor=#1192E8;shape=mxgraph.ibm_cloud.ibm-cloud;strokeColor=none;dashed=0;outlineConnect=0;html=1;labelPosition=center;verticalLabelPosition=bottom;verticalAlign=top;part=1;movable=0;resizable=0;rotatable=0;&quot; vertex=&quot;1&quot; parent=&quot;6LdEgEPXFQvdNdE8efgR-2&quot;&gt;&#10;          &lt;mxGeometry width=&quot;24&quot; height=&quot;24&quot; relative=&quot;1&quot; as=&quot;geometry&quot;&gt;&#10;            &lt;mxPoint x=&quot;12&quot; y=&quot;12&quot; as=&quot;offset&quot; /&gt;&#10;          &lt;/mxGeometry&gt;&#10;        &lt;/mxCell&gt;&#10;        &lt;mxCell id=&quot;6LdEgEPXFQvdNdE8efgR-4&quot; value=&quot;&quot; style=&quot;shape=rect;fillColor=#1192E8;aspect=fixed;resizable=0;labelPosition=right;verticalLabelPosition=middle;align=left;verticalAlign=middle;strokeColor=none;part=1;spacingLeft=5;fontSize=14;&quot; vertex=&quot;1&quot; parent=&quot;6LdEgEPXFQvdNdE8efgR-1&quot;&gt;&#10;          &lt;mxGeometry width=&quot;4&quot; height=&quot;48&quot; relative=&quot;1&quot; as=&quot;geometry&quot; /&gt;&#10;        &lt;/mxCell&gt;&#10;        &lt;mxCell id=&quot;6LdEgEPXFQvdNdE8efgR-5&quot; value=&quot;&quot; style=&quot;container=1;collapsible=0;expand=0;recursiveResize=0;html=1;whiteSpace=wrap;strokeColor=#878D96;fillColor=none;strokeWidth=1&quot; vertex=&quot;1&quot; parent=&quot;1&quot;&gt;&#10;          &lt;mxGeometry x=&quot;310&quot; y=&quot;240&quot; width=&quot;180&quot; height=&quot;240&quot; as=&quot;geometry&quot; /&gt;&#10;        &lt;/mxCell&gt;&#10;        &lt;mxCell id=&quot;6LdEgEPXFQvdNdE8efgR-6&quot; value=&quot;Region&quot; style=&quot;shape=rect;fillColor=none;aspect=fixed;resizable=0;labelPosition=right;verticalLabelPosition=middle;align=left;verticalAlign=middle;strokeColor=none;part=1;spacingLeft=5;fontSize=14;&quot; vertex=&quot;1&quot; parent=&quot;6LdEgEPXFQvdNdE8efgR-5&quot;&gt;&#10;          &lt;mxGeometry width=&quot;48&quot; height=&quot;48&quot; relative=&quot;1&quot; as=&quot;geometry&quot; /&gt;&#10;        &lt;/mxCell&gt;&#10;        &lt;mxCell id=&quot;6LdEgEPXFQvdNdE8efgR-7&quot; value=&quot;&quot; style=&quot;fillColor=#878D96;shape=mxgraph.ibm_cloud.location;strokeColor=none;dashed=0;outlineConnect=0;html=1;labelPosition=center;verticalLabelPosition=bottom;verticalAlign=top;part=1;movable=0;resizable=0;rotatable=0;&quot; vertex=&quot;1&quot; parent=&quot;6LdEgEPXFQvdNdE8efgR-6&quot;&gt;&#10;          &lt;mxGeometry width=&quot;24&quot; height=&quot;24&quot; relative=&quot;1&quot; as=&quot;geometry&quot;&gt;&#10;            &lt;mxPoint x=&quot;12&quot; y=&quot;12&quot; as=&quot;offset&quot; /&gt;&#10;          &lt;/mxGeometry&gt;&#10;        &lt;/mxCell&gt;&#10;        &lt;mxCell id=&quot;6LdEgEPXFQvdNdE8efgR-8&quot; value=&quot;&quot; style=&quot;shape=rect;fillColor=#878D96;aspect=fixed;resizable=0;labelPosition=right;verticalLabelPosition=middle;align=left;verticalAlign=middle;strokeColor=none;part=1;spacingLeft=5;fontSize=14;&quot; vertex=&quot;1&quot; parent=&quot;6LdEgEPXFQvdNdE8efgR-5&quot;&gt;&#10;          &lt;mxGeometry width=&quot;4&quot; height=&quot;48&quot; relative=&quot;1&quot; as=&quot;geometry&quot; /&gt;&#10;        &lt;/mxCell&gt;&#10;        &lt;mxCell id=&quot;6LdEgEPXFQvdNdE8efgR-9&quot; value=&quot;Object Storage&quot; style=&quot;shape=rect;fillColor=#0F62FE;aspect=fixed;resizable=0;labelPosition=center;verticalLabelPosition=bottom;align=center;verticalAlign=top;strokeColor=none;fontSize=14;&quot; vertex=&quot;1&quot; parent=&quot;1&quot;&gt;&#10;          &lt;mxGeometry x=&quot;381&quot; y=&quot;371&quot; width=&quot;48&quot; height=&quot;48&quot; as=&quot;geometry&quot; /&gt;&#10;        &lt;/mxCell&gt;&#10;        &lt;mxCell id=&quot;6LdEgEPXFQvdNdE8efgR-10&quot; value=&quot;&quot; style=&quot;fillColor=#ffffff;strokeColor=none;dashed=0;outlineConnect=0;html=1;labelPosition=center;verticalLabelPosition=bottom;verticalAlign=top;part=1;movable=0;resizable=0;rotatable=0;shape=mxgraph.ibm_cloud.object-storage&quot; vertex=&quot;1&quot; parent=&quot;6LdEgEPXFQvdNdE8efgR-9&quot;&gt;&#10;          &lt;mxGeometry width=&quot;24&quot; height=&quot;24&quot; relative=&quot;1&quot; as=&quot;geometry&quot;&gt;&#10;            &lt;mxPoint x=&quot;12&quot; y=&quot;12&quot; as=&quot;offset&quot; /&gt;&#10;          &lt;/mxGeometry&gt;&#10;        &lt;/mxCell&gt;&#10;      &lt;/root&gt;&#10;    &lt;/mxGraphModel&gt;&#10;  &lt;/diagram&gt;&#10;&lt;/mxfile&gt;&#10;"><defs><style type="text/css">@font-face {&#xa;font-family: "IBM Plex Sans";&#xa;src: url("fonts/IBMPlexSans-Regular.woff");&#xa;}&#xa;</style></defs><rect fill="#ffffff" width="100%" height="100%" x="0" y="0" style="fill: light-dark(#ffffff, var(--ge-dark-color, #121212));"/><g><g data-cell-id="0"><g data-cell-id="1"><g data-cell-id="6LdEgEPXFQvdNdE8efgR-1"><g><rect x="0" y="0" width="200" height="310" fill="none" stroke="#1192e8" pointer-events="all" style="stroke: rgb(17, 146, 232);"/></g><g data-cell-id="6LdEgEPXFQvdNdE8efgR-2"><g><rect x="0" y="0" width="48" height="48" fill="none" stroke="none" pointer-events="all"/></g><g><g fill="#000000" font-family="&quot;Helvetica&quot;" font-size="14px" style="fill: light-dark(rgb(0, 0, 0), rgb(255, 255, 255));"><text x="54.5" y="29.5">IBM Cloud</text></g></g><g data-cell-id="6LdEgEPXFQvdNdE8efgR-3"><g><rect x="12.02" y="12" width="23.88" height="24" fill="none" stroke="none" pointer-events="all"/><rect x="12" y="12" width="0" height="0" fill="none" stroke="none" pointer-events="all"/><path d="M 30.36 22.24 C 28.84 19.37 25.61 17.86 22.45 18.54 C 19.28 19.21 16.94 21.91 16.71 25.15 C 14.05 25.44 12.08 27.77 12.22 30.46 C 12.36 33.14 14.57 35.25 17.24 35.25 L 29.19 35.25 C 32.56 35.25 35.39 32.67 35.69 29.29 C 36 25.9 33.69 22.85 30.36 22.24 Z M 29.19 34.13 L 17.24 34.13 C 15.18 34.13 13.47 32.53 13.33 30.46 C 13.19 28.39 14.68 26.57 16.72 26.3 C 16.8 27.3 17.08 28.26 17.55 29.14 C 17.69 29.42 18.03 29.52 18.3 29.37 C 18.58 29.22 18.68 28.88 18.53 28.61 C 17 25.72 17.96 22.14 20.74 20.42 C 23.51 18.71 27.13 19.46 29 22.13 C 27.19 22.18 25.49 22.99 24.29 24.35 C 24.15 24.5 24.1 24.71 24.16 24.91 C 24.23 25.1 24.39 25.25 24.59 25.29 C 24.79 25.32 25 25.25 25.13 25.09 C 26.77 23.21 29.48 22.71 31.69 23.87 C 33.9 25.03 35.03 27.55 34.44 29.98 C 33.85 32.42 31.68 34.12 29.19 34.13 Z M 35.83 19.69 C 35.75 19.56 35.63 19.47 35.48 19.43 C 35.34 19.39 35.18 19.41 35.05 19.48 L 32.8 20.79 C 32.62 20.89 32.5 21.08 32.5 21.29 C 32.49 21.5 32.61 21.69 32.79 21.79 C 32.97 21.89 33.19 21.89 33.36 21.78 L 35.62 20.47 C 35.89 20.31 35.98 19.96 35.83 19.69 Z M 28.94 17.9 C 29.07 17.98 29.23 18 29.37 17.96 C 29.52 17.92 29.64 17.82 29.72 17.69 L 31.02 15.43 C 31.16 15.16 31.07 14.82 30.8 14.67 C 30.54 14.52 30.2 14.6 30.04 14.86 L 28.74 17.13 C 28.58 17.4 28.67 17.75 28.94 17.9 Z M 23.96 16.56 C 24.11 16.56 24.26 16.5 24.36 16.39 C 24.47 16.29 24.53 16.14 24.53 15.99 L 24.53 13.38 C 24.53 13.06 24.27 12.81 23.96 12.81 C 23.65 12.81 23.4 13.06 23.4 13.38 L 23.4 15.99 C 23.39 16.14 23.45 16.29 23.56 16.39 C 23.67 16.5 23.81 16.56 23.96 16.56 Z M 18.21 17.69 C 18.37 17.96 18.71 18.04 18.97 17.89 C 19.24 17.73 19.33 17.4 19.19 17.12 L 17.88 14.86 C 17.78 14.68 17.6 14.57 17.39 14.57 C 17.19 14.57 17 14.68 16.9 14.86 C 16.8 15.04 16.8 15.25 16.9 15.43 Z M 15.12 20.79 L 12.87 19.48 C 12.69 19.37 12.47 19.37 12.29 19.47 C 12.11 19.57 12 19.76 12 19.97 C 12.01 20.18 12.12 20.37 12.3 20.47 L 14.56 21.78 C 14.73 21.88 14.95 21.89 15.13 21.79 C 15.31 21.68 15.42 21.49 15.42 21.29 C 15.42 21.08 15.31 20.89 15.12 20.79 Z" fill="#1192e8" stroke="none" pointer-events="all" style="fill: rgb(17, 146, 232);"/></g></g></g><g data-cell-id="6LdEgEPXFQvdNdE8efgR-4"><g><rect x="0" y="0" width="4" height="48" fill="#1192e8" stroke="none" pointer-events="all" style="fill: rgb(17, 146, 232);"/></g></g></g><g data-cell-id="6LdEgEPXFQvdNdE8efgR-5"><g><rect x="10" y="60" width="180" height="240" fill="none" stroke="#878d96" pointer-events="all" style="stroke: rgb(135, 141, 150);"/></g><g data-cell-id="6LdEgEPXFQvdNdE8efgR-6"><g><rect x="10" y="60" width="48" height="48" fill="none" stroke="none" pointer-events="all"/></g><g><g fill="#000000" font-family="&quot;Helvetica&quot;" font-size="14px" style="fill: light-dark(rgb(0, 0, 0), rgb(255, 255, 255));"><text x="64.5" y="89.5">Region</text></g></g><g data-cell-id="6LdEgEPXFQvdNdE8efgR-7"><g><rect x="22" y="72" width="24" height="24" fill="none" stroke="none" pointer-events="all"/><rect x="22" y="72" width="0" height="0" fill="none" stroke="none" pointer-events="all"/><path d="M 34 85.5 C 31.93 85.5 30.25 83.82 30.25 81.75 C 30.25 79.68 31.93 78 34 78 C 36.07 78 37.75 79.68 37.75 81.75 C 37.75 83.82 36.07 85.5 34 85.5 Z M 34 79.5 C 32.76 79.5 31.75 80.51 31.75 81.75 C 31.75 82.99 32.76 84 34 84 C 35.24 84 36.25 82.99 36.25 81.75 C 36.25 80.51 35.24 79.5 34 79.5 Z" fill="#878d96" stroke="none" pointer-events="all" style="fill: rgb(135, 141, 150);"/><path d="M 34 94.5 L 27.67 87.04 C 27.59 86.93 27.5 86.81 27.41 86.7 C 26.33 85.28 25.75 83.54 25.75 81.75 C 25.75 77.19 29.44 73.5 34 73.5 C 38.56 73.5 42.25 77.19 42.25 81.75 C 42.25 83.54 41.67 85.27 40.59 86.7 L 40.59 86.7 C 40.59 86.7 40.36 87 40.33 87.04 Z M 28.61 85.8 C 28.61 85.8 28.78 86.03 28.82 86.08 L 34 92.18 L 39.18 86.07 C 39.22 86.03 39.39 85.79 39.39 85.79 C 40.27 84.63 40.75 83.21 40.75 81.75 C 40.75 78.02 37.73 75 34 75 C 30.27 75 27.25 78.02 27.25 81.75 C 27.25 83.21 27.73 84.63 28.61 85.8 Z" fill="#878d96" stroke="none" pointer-events="all" style="fill: rgb(135, 141, 150);"/></g></g></g><g data-cell-id="6LdEgEPXFQvdNdE8efgR-8"><g><rect x="10" y="60" width="4" height="48" fill="#878d96" stroke="none" pointer-events="all" style="fill: rgb(135, 141, 150);"/></g></g></g><g data-cell-id="6LdEgEPXFQvdNdE8efgR-9"><g><rect x="81" y="191" width="48" height="48" fill="#0f62fe" stroke="none" pointer-events="all" style="fill: rgb(15, 98, 254);"/></g><g><g fill="#000000" font-family="&quot;Helvetica&quot;" text-anchor="middle" font-size="14px" style="fill: light-dark(rgb(0, 0, 0), rgb(255, 255, 255));"><text x="104.5" y="258.5">Object Storage</text></g></g><g data-cell-id="6LdEgEPXFQvdNdE8efgR-10"><g><rect x="93" y="203" width="24" height="24" fill="none" stroke="none" pointer-events="all"/><rect x="93" y="203" width="0" height="0" fill="none" stroke="none" pointer-events="all"/><path d="M 114 218 L 112.5 218 L 112.5 219.5 L 114 219.5 L 114 224 L 96 224 L 96 219.5 L 103.5 219.5 L 103.5 218 L 96 218 C 95.17 218 94.5 218.67 94.5 219.5 L 94.5 224 C 94.5 224.83 95.17 225.5 96 225.5 L 114 225.5 C 114.83 225.5 115.5 224.83 115.5 224 L 115.5 219.5 C 115.5 218.67 114.83 218 114 218 Z" fill="#ffffff" stroke="none" pointer-events="all" style="fill: rgb(255, 255, 255);"/><ellipse cx="98.25" cy="221.75" rx="0.75" ry="0.75" fill="#ffffff" stroke="none" pointer-events="all" style="fill: rgb(255, 255, 255);"/><path d="M 115.5 209 L 109.5 209 L 109.5 213.5 L 105 213.5 L 105 219.5 L 111 219.5 L 111 215 L 115.5 215 Z M 109.5 218 L 106.5 218 L 106.5 215 L 109.5 215 Z M 114 213.5 L 111 213.5 L 111 210.5 L 114 210.5 Z M 106.5 210.5 L 100.5 210.5 L 100.5 204.5 L 106.5 204.5 Z M 102 209 L 105 209 L 105 206 L 102 206 Z" fill="#ffffff" stroke="none" pointer-events="all" style="fill: rgb(255, 255, 255);"/></g></g></g></g></g></g></svg>